<?xml version="1.0" standalone="no"?>
<!DOCTYPE svg PUBLIC "-//W3C//DTD SVG 20010904//EN"
 "http://www.w3.org/TR/2001/REC-SVG-20010904/DTD/svg10.dtd">
<svg version="1.0" xmlns="http://www.w3.org/2000/svg"
 width="1280.000000pt" height="640.000000pt" viewBox="0 0 1280.000000 640.000000"
 preserveAspectRatio="xMidYMid meet">
<g transform="translate(0.000000,640.000000) scale(0.100000,-0.100000)"
fill="#000000" stroke="none">
<path d="M1074 5901 c-48 -29 -74 -69 -74 -113 0 -135 176 -194 277 -93 28 28
33 40 33 82 0 60 -25 104 -73 126 -47 23 -124 22 -163 -2z"/>
<path d="M1610 5611 c-171 -52 -225 -244 -104 -365 99 -99 277 -83 358 32 38
54 48 149 21 203 -53 104 -172 161 -275 130z"/>
<path d="M964 5324 c-130 -46 -202 -192 -162 -326 16 -55 83 -126 143 -154 65
-31 179 -33 241 -5 100 45 164 140 164 242 0 104 -76 209 -178 243 -56 20
-153 19 -208 0z"/>
<path d="M2104 4907 c-2 -7 -3 -71 -2 -143 l3 -129 100 -5 100 -5 3 -684 c1
-497 -1 -688 -9 -697 -16 -19 -333 -20 -348 -1 -6 6 -22 26 -36 43 l-25 32 0
408 0 409 139 225 140 225 -82 7 c-45 3 -356 6 -691 7 -493 1 -607 -1 -603
-12 3 -7 71 -109 151 -227 l146 -214 0 -421 0 -420 -25 -38 c-24 -35 -29 -37
-80 -37 l-54 0 -3 -67 -3 -68 -45 -23 c-149 -77 -257 -292 -306 -612 -21 -131
-23 -439 -5 -565 15 -106 43 -232 65 -294 9 -24 16 -52 16 -62 0 -16 -621
-769 -642 -777 -4 -2 -8 -12 -8 -23 0 -18 9 -19 128 -19 71 0 319 -3 553 -6
l424 -6 49 -39 c97 -77 246 -129 369 -129 135 1 293 61 389 149 111 101 157
200 167 356 l6 100 70 0 70 0 6 -105 c8 -137 32 -203 107 -294 149 -180 405
-249 638 -171 124 42 222 116 288 220 53 82 68 131 75 245 l6 105 63 3 c35 2
69 -2 76 -7 7 -6 18 -36 25 -67 59 -263 269 -483 532 -558 376 -107 778 69
935 409 19 41 41 102 49 137 19 81 19 245 0 326 -8 35 -13 68 -9 73 6 10 143
13 168 3 14 -5 16 -29 16 -160 0 -85 4 -162 9 -172 5 -9 14 -54 20 -100 15
-118 56 -199 145 -288 79 -78 159 -123 267 -149 133 -31 306 -10 422 52 69 37
188 155 221 220 30 61 56 160 56 221 l0 42 69 0 68 0 7 -62 c16 -146 67 -251
167 -341 117 -106 255 -153 424 -144 205 11 377 113 463 275 56 105 63 151 55
379 -5 157 -3 206 7 218 16 19 172 22 187 3 6 -7 13 -110 16 -228 5 -178 9
-226 26 -281 97 -309 473 -458 791 -313 171 78 283 234 299 414 l6 75 70 0 70
0 7 -75 c16 -183 127 -336 298 -414 289 -132 636 -21 764 245 43 90 55 184 56
419 0 100 4 150 12 158 16 16 170 16 186 0 8 -8 12 -60 12 -168 1 -208 12
-288 54 -375 59 -125 164 -219 303 -271 90 -35 247 -44 346 -20 229 54 393
232 415 449 l7 72 58 3 c72 4 87 -7 87 -63 0 -154 125 -336 286 -414 317 -154
708 -5 804 307 11 35 20 84 20 107 0 24 4 47 10 50 7 4 10 288 10 821 l0 814
-1200 0 -1200 0 -2 -452 -3 -453 -100 0 -100 0 -3 443 -2 442 -1195 0 -1195 0
-2 -442 -3 -443 -94 -3 c-69 -2 -97 1 -103 10 -4 7 -8 208 -8 446 l0 432
-1195 0 -1195 0 -2 -442 -3 -443 -123 -3 -122 -3 2 1383 3 1383 58 3 57 3 0
144 0 145 -1480 0 c-1207 0 -1482 -2 -1486 -13z"/>
</g>
</svg>
